<svg xmlns="http://www.w3.org/2000/svg" viewBox="0 0 64 64" fill="none">
  <!-- Light beam -->
  <path d="M32 8 L20 20 L44 20 Z" fill="#FFD700" opacity="0.6"/>
  <path d="M32 8 L12 16 L20 20 Z" fill="#FFD700" opacity="0.4"/>
  <path d="M32 8 L52 16 L44 20 Z" fill="#FFD700" opacity="0.4"/>

  <!-- Lighthouse top (lamp room) -->
  <rect x="24" y="16" width="16" height="8" fill="#1a1a2e" rx="1"/>
  <rect x="26" y="18" width="12" height="4" fill="#FFD700"/>

  <!-- Lighthouse tower -->
  <path d="M22 24 L26 56 L38 56 L42 24 Z" fill="#e74c3c"/>

  <!-- White stripes -->
  <path d="M23 32 L25.5 32 L25 40 L22.5 40 Z" fill="white"/>
  <path d="M41 32 L38.5 32 L39 40 L41.5 40 Z" fill="white"/>
  <path d="M24 48 L26 48 L25.5 56 L24.5 56 Z" fill="white"/>
  <path d="M40 48 L38 48 L38.5 56 L39.5 56 Z" fill="white"/>

  <!-- Door -->
  <rect x="29" y="46" width="6" height="10" fill="#1a1a2e" rx="1"/>

  <!-- Base/rocks -->
  <ellipse cx="32" cy="58" rx="18" ry="4" fill="#34495e"/>
</svg>
